<mxfile host="app.diagrams.net" modified="2021-09-08T13:20:20.249Z" agent="5.0 (X11)" etag="PJFu6wMHFbXU21vFlcbH" version="15.1.1" type="github">
  <diagram id="D8pp1TAPfAaHIgd1MpEE" name="Page-1">
    <mxGraphModel dx="1108" dy="627" grid="1" gridSize="10" guides="1" tooltips="1" connect="1" arrows="1" fold="1" page="1" pageScale="1" pageWidth="850" pageHeight="1100" math="0" shadow="0">
      <root>
        <mxCell id="0" />
        <mxCell id="1" parent="0" />
        <mxCell id="TAzYBhNEJsp0tGCk1SkH-1" value="Chapter 6: Aggregation of Income, Set-off and Carry Forward of Losses" style="rounded=0;whiteSpace=wrap;html=1;" parent="1" vertex="1">
          <mxGeometry x="320" width="240" height="40" as="geometry" />
        </mxCell>
        <mxCell id="We-hl39juAuCVzyDzWIm-1" value="" style="rounded=1;whiteSpace=wrap;html=1;" vertex="1" parent="1">
          <mxGeometry x="350" y="190" width="120" height="40" as="geometry" />
        </mxCell>
      </root>
    </mxGraphModel>
  </diagram>
</mxfile>
